<svg aria-roledescription="xychart" role="graphics-document document" viewBox="0 0 700 500" style="max-width: 100%;"
	xmlns="http://www.w3.org/2000/svg" width="100%" id="graph-div" height="100%"
	xmlns:xlink="http://www.w3.org/1999/xlink">
	<style>
		@import url("https://cdnjs.cloudflare.com/ajax/libs/font-awesome/6.5.0/css/all.min.css");
		'
	</style>
	<style>
		#graph-div {
			font-family: "trebuchet ms", verdana, arial, sans-serif;
			font-size: 16px;
			fill: #ccc;
		}

		#graph-div .error-icon {
			fill: #a44141;
		}

		#graph-div .error-text {
			fill: #ddd;
			stroke: #ddd;
		}

		#graph-div .edge-thickness-normal {
			stroke-width: 2px;
		}

		#graph-div .edge-thickness-thick {
			stroke-width: 3.5px;
		}

		#graph-div .edge-pattern-solid {
			stroke-dasharray: 0;
		}

		#graph-div .edge-pattern-dashed {
			stroke-dasharray: 3;
		}

		#graph-div .edge-pattern-dotted {
			stroke-dasharray: 2;
		}

		#graph-div .marker {
			fill: lightgrey;
			stroke: lightgrey;
		}

		#graph-div .marker.cross {
			stroke: lightgrey;
		}

		#graph-div svg {
			font-family: "trebuchet ms", verdana, arial, sans-serif;
			font-size: 16px;
		}

		#graph-div :root {
			--mermaid-font-family: "trebuchet ms", verdana, arial, sans-serif;
		}
	</style>
	<g></g>
	<g class="main">
		<rect fill="#333" class="background" height="500" width="700"></rect>
		<g class="chart-title"><text transform="translate(350, 21.5) rotate(0)" text-anchor="middle"
				dominant-baseline="middle" font-size="20" fill="#e0dfdf" y="0" x="0">Frequency of Ranking within
				Top-k</text></g>
		<g class="plot">
			<g class="line-plot-0">
				<path stroke-width="2" stroke="#808080" fill="none"
					d="M83.696,459L143.825,459L203.954,459L264.084,459L324.213,459L384.342,459L444.471,459L504.6,459L564.729,459L624.858,459L684.987,459">
				</path>
			</g>
			<g class="line-plot-1">
				<path stroke-width="2" stroke="#808080" fill="none"
					d="M83.696,357L143.825,357L203.954,357L264.084,357L324.213,357L384.342,357L444.471,357L504.6,357L564.729,357L624.858,357L684.987,357">
				</path>
			</g>
			<g class="line-plot-2">
				<path stroke-width="2" stroke="#808080" fill="none"
					d="M83.696,255L143.825,255L203.954,255L264.084,255L324.213,255L384.342,255L444.471,255L504.6,255L564.729,255L624.858,255L684.987,255">
				</path>
			</g>
			<g class="line-plot-3">
				<path stroke-width="2" stroke="#808080" fill="none"
					d="M83.696,153L143.825,153L203.954,153L264.084,153L324.213,153L384.342,153L444.471,153L504.6,153L564.729,153L624.858,153L684.987,153">
				</path>
			</g>
			<g class="line-plot-4">
				<path stroke-width="2" stroke="#808080" fill="none"
					d="M83.696,51L143.825,51L203.954,51L264.084,51L324.213,51L384.342,51L444.471,51L504.6,51L564.729,51L624.858,51L684.987,51">
				</path>
			</g>
			<g class="line-plot-5">
				<path stroke-width="2" stroke="#f84" fill="none"
					d="M83.696,459L143.825,459L203.954,459L264.084,459L324.213,446.76L384.342,446.76L444.471,430.44L504.6,430.44L564.729,381.48L624.858,287.64L684.987,161.16">
				</path>
			</g>
			<g class="line-plot-6">
				<path stroke-width="2" stroke="#1d6" fill="none"
					d="M83.696,442.68L143.825,442.68L203.954,401.88L264.084,385.56L324.213,369.24L384.342,303.96L444.471,255L504.6,214.2L564.729,148.92L624.858,91.8L684.987,67.32">
				</path>
			</g>
		</g>
		<g class="bottom-axis">
			<g class="axis-line">
				<path stroke-width="2" stroke="#e0dfdf" fill="none" d="M 68.68359375,468 L 700,468"></path>
			</g>
			<g class="label"><text transform="translate(83.6962890625, 479) rotate(0)" text-anchor="middle"
					dominant-baseline="text-before-edge" font-size="14" fill="#e0dfdf" y="0" x="0">100</text><text
					transform="translate(143.825390625, 479) rotate(0)" text-anchor="middle"
					dominant-baseline="text-before-edge" font-size="14" fill="#e0dfdf" y="0" x="0">150</text><text
					transform="translate(203.9544921875, 479) rotate(0)" text-anchor="middle"
					dominant-baseline="text-before-edge" font-size="14" fill="#e0dfdf" y="0" x="0">200</text><text
					transform="translate(264.08359375, 479) rotate(0)" text-anchor="middle"
					dominant-baseline="text-before-edge" font-size="14" fill="#e0dfdf" y="0" x="0">300</text><text
					transform="translate(324.2126953125, 479) rotate(0)" text-anchor="middle"
					dominant-baseline="text-before-edge" font-size="14" fill="#e0dfdf" y="0" x="0">500</text><text
					transform="translate(384.341796875, 479) rotate(0)" text-anchor="middle"
					dominant-baseline="text-before-edge" font-size="14" fill="#e0dfdf" y="0" x="0">700</text><text
					transform="translate(444.47089843749995, 479) rotate(0)" text-anchor="middle"
					dominant-baseline="text-before-edge" font-size="14" fill="#e0dfdf" y="0" x="0">1000</text><text
					transform="translate(504.59999999999997, 479) rotate(0)" text-anchor="middle"
					dominant-baseline="text-before-edge" font-size="14" fill="#e0dfdf" y="0" x="0">1500</text><text
					transform="translate(564.7291015625, 479) rotate(0)" text-anchor="middle"
					dominant-baseline="text-before-edge" font-size="14" fill="#e0dfdf" y="0" x="0">2000</text><text
					transform="translate(624.8582031249999, 479) rotate(0)" text-anchor="middle"
					dominant-baseline="text-before-edge" font-size="14" fill="#e0dfdf" y="0" x="0">3000</text><text
					transform="translate(684.9873046875, 479) rotate(0)" text-anchor="middle"
					dominant-baseline="text-before-edge" font-size="14" fill="#e0dfdf" y="0" x="0">5000</text></g>
			<g class="ticks">
				<path stroke-width="2" stroke="#e0dfdf" fill="none" d="M 83.6962890625,469 L 83.6962890625,474"></path>
				<path stroke-width="2" stroke="#e0dfdf" fill="none" d="M 143.825390625,469 L 143.825390625,474"></path>
				<path stroke-width="2" stroke="#e0dfdf" fill="none" d="M 203.9544921875,469 L 203.9544921875,474">
				</path>
				<path stroke-width="2" stroke="#e0dfdf" fill="none" d="M 264.08359375,469 L 264.08359375,474"></path>
				<path stroke-width="2" stroke="#e0dfdf" fill="none" d="M 324.2126953125,469 L 324.2126953125,474">
				</path>
				<path stroke-width="2" stroke="#e0dfdf" fill="none" d="M 384.341796875,469 L 384.341796875,474"></path>
				<path stroke-width="2" stroke="#e0dfdf" fill="none"
					d="M 444.47089843749995,469 L 444.47089843749995,474"></path>
				<path stroke-width="2" stroke="#e0dfdf" fill="none"
					d="M 504.59999999999997,469 L 504.59999999999997,474"></path>
				<path stroke-width="2" stroke="#e0dfdf" fill="none" d="M 564.7291015625,469 L 564.7291015625,474">
				</path>
				<path stroke-width="2" stroke="#e0dfdf" fill="none" d="M 624.8582031249999,469 L 624.8582031249999,474">
				</path>
				<path stroke-width="2" stroke="#e0dfdf" fill="none" d="M 684.9873046875,469 L 684.9873046875,474">
				</path>
			</g>
		</g>
		<g class="left-axis">
			<g class="axisl-line">
				<path stroke-width="2" stroke="#e0dfdf" fill="none" d="M 67.68359375,43 L 67.68359375,467"></path>
			</g>
			<g class="label"><text transform="translate(56.68359375, 51) rotate(0)" text-anchor="end"
					dominant-baseline="middle" font-size="14" fill="#e0dfdf" y="0" x="0">100</text><text
					transform="translate(56.68359375, 91.79999999999998) rotate(0)" text-anchor="end"
					dominant-baseline="middle" font-size="14" fill="#e0dfdf" y="0" x="0">90</text><text
					transform="translate(56.68359375, 132.6) rotate(0)" text-anchor="end" dominant-baseline="middle"
					font-size="14" fill="#e0dfdf" y="0" x="0">80</text><text
					transform="translate(56.68359375, 173.4) rotate(0)" text-anchor="end" dominant-baseline="middle"
					font-size="14" fill="#e0dfdf" y="0" x="0">70</text><text
					transform="translate(56.68359375, 214.20000000000002) rotate(0)" text-anchor="end"
					dominant-baseline="middle" font-size="14" fill="#e0dfdf" y="0" x="0">60</text><text
					transform="translate(56.68359375, 255) rotate(0)" text-anchor="end" dominant-baseline="middle"
					font-size="14" fill="#e0dfdf" y="0" x="0">50</text><text
					transform="translate(56.68359375, 295.79999999999995) rotate(0)" text-anchor="end"
					dominant-baseline="middle" font-size="14" fill="#e0dfdf" y="0" x="0">40</text><text
					transform="translate(56.68359375, 336.59999999999997) rotate(0)" text-anchor="end"
					dominant-baseline="middle" font-size="14" fill="#e0dfdf" y="0" x="0">30</text><text
					transform="translate(56.68359375, 377.40000000000003) rotate(0)" text-anchor="end"
					dominant-baseline="middle" font-size="14" fill="#e0dfdf" y="0" x="0">20</text><text
					transform="translate(56.68359375, 418.20000000000005) rotate(0)" text-anchor="end"
					dominant-baseline="middle" font-size="14" fill="#e0dfdf" y="0" x="0">10</text><text
					transform="translate(56.68359375, 459) rotate(0)" text-anchor="end" dominant-baseline="middle"
					font-size="14" fill="#e0dfdf" y="0" x="0">0</text></g>
			<g class="ticks">
				<path stroke-width="2" stroke="#e0dfdf" fill="none" d="M 66.68359375,51 L 61.68359375,51"></path>
				<path stroke-width="2" stroke="#e0dfdf" fill="none"
					d="M 66.68359375,91.79999999999998 L 61.68359375,91.79999999999998"></path>
				<path stroke-width="2" stroke="#e0dfdf" fill="none" d="M 66.68359375,132.6 L 61.68359375,132.6"></path>
				<path stroke-width="2" stroke="#e0dfdf" fill="none" d="M 66.68359375,173.4 L 61.68359375,173.4"></path>
				<path stroke-width="2" stroke="#e0dfdf" fill="none"
					d="M 66.68359375,214.20000000000002 L 61.68359375,214.20000000000002"></path>
				<path stroke-width="2" stroke="#e0dfdf" fill="none" d="M 66.68359375,255 L 61.68359375,255"></path>
				<path stroke-width="2" stroke="#e0dfdf" fill="none"
					d="M 66.68359375,295.79999999999995 L 61.68359375,295.79999999999995"></path>
				<path stroke-width="2" stroke="#e0dfdf" fill="none"
					d="M 66.68359375,336.59999999999997 L 61.68359375,336.59999999999997"></path>
				<path stroke-width="2" stroke="#e0dfdf" fill="none"
					d="M 66.68359375,377.40000000000003 L 61.68359375,377.40000000000003"></path>
				<path stroke-width="2" stroke="#e0dfdf" fill="none"
					d="M 66.68359375,418.20000000000005 L 61.68359375,418.20000000000005"></path>
				<path stroke-width="2" stroke="#e0dfdf" fill="none" d="M 66.68359375,459 L 61.68359375,459"></path>
			</g>
			<g class="title"><text transform="translate(5, 255) rotate(270)" text-anchor="middle"
					dominant-baseline="text-before-edge" font-size="16" fill="#e0dfdf" y="0" x="0">Frequency (in
					%)</text></g>
		</g>
	</g>
	<g class="mermaid-tmp-group"></g>
</svg>